# File created by Blade
# Date/Time:  Wed Apr 08 17:04:14 2015
#---------------------------------------------------------
:version 1.10
:name HOM
:units
  mass 1.0
  length 1.000000
  angle deg
:documentation
     Acclaim Skeleton File
:root
   axis xyz
   order TX TY TZ RX RY RZ
   position 0.000000 0.000000 0.000000
   orientation 0 0 0
:bonedata
   begin
      id 1
      name Spine_dum
      direction 0.000000 1.000000 0.000000
      length 5.893853
      axis 0.0 0.0 0.0 xyz
   end
   begin
      id 2
      name LeftUpLeg_dum
      direction 1.000000 0.000000 0.000000
      length 3.697939
      axis 0.0 0.0 0.0 xyz
   end
   begin
      id 3
      name RightUpLeg_dum
      direction -1.000000 0.000000 0.000000
      length 3.697939
      axis 0.0 0.0 0.0 xyz
   end
   begin
      id 4
      name Spine
      direction 0.000000 1.000000 0.000000
      length 0.000000
      axis 0.0 0.0 0.0 xyz
      dof rx ry rz
   end
   begin
      id 5
      name Spine_dum1
      direction 0.000000 1.000000 0.000000
      length 16.447146
      axis 0.0 0.0 0.0 xyz
   end
   begin
      id 6
      name Spine_dum2
      direction 0.000000 1.000000 0.000000
      length 10.900383
      axis 0.0 0.0 0.0 xyz
   end
   begin
      id 7
      name Spine_dum3
      direction 0.000000 1.000000 0.000000
      length 10.900383
      axis 0.0 0.0 0.0 xyz
   end
   begin
      id 8
      name Head
      direction 0.000000 1.000000 0.000000
      length 4.527550
      axis 0.0 0.0 0.0 xyz
      dof rx ry rz
   end
   begin
      id 9
      name LeftShoulder
      direction 1.000000 0.000000 0.000000
      length 8.219464
      axis 0.0 0.0 -90.0 xyz
      dof rx ry rz
   end
   begin
      id 10
      name LeftArm
      direction 1.000000 0.000000 0.000000
      length 11.094937
      axis 0.0 0.0 -90.0 xyz
      dof rx ry rz
   end
   begin
      id 11
      name LeftForeArm
      direction 1.000000 0.000000 0.000000
      length 9.103875
      axis 0.0 0.0 -90.0 xyz
      dof ry rz rx
   end
   begin
      id 12
      name LeftHand
      direction 0.000000 0.000000 0.000000
      length 0.000000
      axis 0.0 0.0 -90.0 xyz
      dof rx ry rz
   end
   begin
      id 13
      name LeftHand_dum1
      direction 0.000000 0.000000 0.000000
      length 0.000000
      axis 0.0 0.0 -90.0 xyz
   end
   begin
      id 14
      name LeftHand_dum2
      direction 1.000000 0.000000 0.000000
      length 3.937000
      axis 0.0 0.0 -90.0 xyz
   end
   begin
      id 15
      name LeftHandThumb1
      direction 0.000000 0.000000 1.000000
      length 3.937000
      axis 0.0 0.0 -90.0 xyz
      dof rx rz ry
   end
   begin
      id 16
      name RightShoulder
      direction -1.000000 0.000000 0.000000
      length 8.219464
      axis 0.0 0.0 90.0 xyz
      dof rx ry rz
   end
   begin
      id 17
      name RightArm
      direction -1.000000 0.000000 0.000000
      length 11.094937
      axis 0.0 0.0 90.0 xyz
      dof rx ry rz
   end
   begin
      id 18
      name RightForeArm
      direction -1.000000 0.000000 0.000000
      length 9.103875
      axis 0.0 0.0 90.0 xyz
      dof ry rz rx
   end
   begin
      id 19
      name RightHand
      direction 0.000000 0.000000 0.000000
      length 0.000000
      axis 0.0 0.0 90.0 xyz
      dof rx ry rz
   end
   begin
      id 20
      name RightHand_dum1
      direction 0.000000 0.000000 0.000000
      length 0.000000
      axis 0.0 0.0 90.0 xyz
   end
   begin
      id 21
      name RightHand_dum2
      direction -1.000000 0.000000 0.000000
      length 3.937000
      axis 0.0 0.0 90.0 xyz
   end
   begin
      id 22
      name RightHandThumb1
      direction 0.000000 0.000000 1.000000
      length 3.937000
      axis 0.0 0.0 90.0 xyz
      dof rx rz ry
   end
   begin
      id 23
      name LeftUpLeg
      direction 0.000000 -1.000000 0.000000
      length 16.181467
      axis 0.0 0.0 0.0 xyz
      dof rx ry rz
   end
   begin
      id 24
      name LeftLeg
      direction 0.000000 -1.000000 0.000000
      length 16.501392
      axis 0.0 0.0 0.0 xyz
      dof rx ry rz
   end
   begin
      id 25
      name LeftFoot
      direction 0.000000 -0.258819 0.965926
      length 6.408245
      axis 15.0 0.0 0.0 xyz
      dof rx ry rz
   end
   begin
      id 26
      name LeftToeBase
      direction 0.000000 0.000000 1.000000
      length 2.952750
      axis 0.0 0.0 0.0 xyz
      dof rx ry rz
   end
   begin
      id 27
      name RightUpLeg
      direction 0.000000 -1.000000 0.000000
      length 16.181467
      axis 0.0 0.0 0.0 xyz
      dof rx ry rz
   end
   begin
      id 28
      name RightLeg
      direction 0.000000 -1.000000 0.000000
      length 16.501392
      axis 0.0 0.0 0.0 xyz
      dof rx ry rz
   end
   begin
      id 29
      name RightFoot
      direction 0.000000 -0.258819 0.965926
      length 6.408245
      axis 15.0 0.0 0.0 xyz
      dof rx ry rz
   end
   begin
      id 30
      name RightToeBase
      direction 0.000000 0.000000 1.000000
      length 2.952750
      axis 0.0 0.0 0.0 xyz
      dof rx ry rz
   end
:hierarchy
   begin
      root Spine_dum LeftUpLeg_dum RightUpLeg_dum
      Spine_dum Spine
      LeftUpLeg_dum LeftUpLeg
      RightUpLeg_dum RightUpLeg
      Spine Spine_dum1 Spine_dum2 Spine_dum3
      Spine_dum1 Head
      Spine_dum2 LeftShoulder
      Spine_dum3 RightShoulder
      LeftShoulder LeftArm
      LeftArm LeftForeArm
      LeftForeArm LeftHand
      LeftHand LeftHand_dum1 LeftHand_dum2
      LeftHand_dum1 LeftHandThumb1
      RightShoulder RightArm
      RightArm RightForeArm
      RightForeArm RightHand
      RightHand RightHand_dum1 RightHand_dum2
      RightHand_dum1 RightHandThumb1
      LeftUpLeg LeftLeg
      LeftLeg LeftFoot
      LeftFoot LeftToeBase
      RightUpLeg RightLeg
      RightLeg RightFoot
      RightFoot RightToeBase
   end

# File created by Blade
# Date/Time:  Wed Apr 08 17:04:22 2015
# Frame Rate: 120.000 fps
#------------------------------------------------------
:FULLY-SPECIFIED
:DEGREES
376
root 4.027795 35.990461 3.495991 -157.357057 -72.591362 180.825302
Spine -22.652510 -18.720451 -6.581230
Head 41.196782 -18.439701 -10.493948
LeftShoulder 14.835836 -9.633533 32.520010
LeftArm 102.277420 39.688146 -45.139664
LeftForeArm 11.655580 -0.000000 94.346464
LeftHand -21.492316 -0.000000 3.957546
LeftHandThumb1 -26.253704 0.000000 33.147579
RightShoulder 1.562203 -54.418393 -34.196809
RightArm 41.608767 -12.994572 23.435890
RightForeArm -1.974849 -0.000000 14.955110
RightHand 10.197912 -0.000000 -1.153433
RightHandThumb1 -24.326973 -0.000000 -32.862282
LeftUpLeg -25.072110 16.856865 -2.940330
LeftLeg 16.787164 -0.000000 -0.000000
LeftFoot -17.911314 13.298895 -16.031328
LeftToeBase 9.347371 -0.000000 -0.000000
RightUpLeg -31.702379 0.684664 -9.651938
RightLeg 15.823055 -0.000000 -0.000000
RightFoot -8.173588 5.268791 18.419017
RightToeBase 13.126748 -0.000000 -0.000000
377
root 4.024130 35.989564 3.491757 -157.459628 -72.575238 180.859527
Spine -22.551695 -18.730110 -6.609468
Head 41.326785 -18.377626 -10.527461
LeftShoulder 14.869592 -9.566241 32.459347
LeftArm 102.515561 39.707603 -44.813572
LeftForeArm 11.833027 0.000000 94.277158
LeftHand -21.706950 -0.000000 4.512311
LeftHandThumb1 -26.253704 0.000000 33.147579
RightShoulder 1.702206 -54.553596 -34.246522
RightArm 41.686560 -14.235736 22.458796
RightForeArm -3.250425 -0.000000 15.420418
RightHand 10.096064 0.000000 -0.582890
RightHandThumb1 -24.326973 -0.000000 -32.862282
LeftUpLeg -24.992782 16.887640 -2.910332
LeftLeg 16.792836 -0.000000 -0.000000
LeftFoot -17.924793 13.283995 -16.042939
LeftToeBase 9.333491 -0.000000 -0.000000
RightUpLeg -31.645222 0.701550 -9.637978
RightLeg 15.849835 -0.000000 -0.000000
RightFoot -8.183005 5.292136 18.424316
RightToeBase 13.163985 -0.000000 -0.000000
378
root 4.022002 35.989234 3.488291 -157.527745 -72.550880 180.886083
Spine -22.485852 -18.734664 -6.642619
Head 41.460680 -18.325126 -10.517909
LeftShoulder 14.919167 -9.514702 32.422418
LeftArm 102.614764 39.770418 -44.662892
LeftForeArm 11.616972 -0.000000 94.279116
LeftHand -21.907325 -0.000000 4.735073
LeftHandThumb1 -26.253704 0.000000 33.147579
RightShoulder 1.771262 -54.734134 -34.221356
RightArm 41.846715 -15.261790 21.519723
RightForeArm -3.933793 -0.000000 15.848531
RightHand 9.944818 -0.000000 0.841384
RightHandThumb1 -24.326973 -0.000000 -32.862282
LeftUpLeg -24.932343 16.894778 -2.885746
LeftLeg 16.783114 -0.000000 -0.000000
LeftFoot -17.934018 13.300685 -16.040239
LeftToeBase 9.352390 -0.000000 -0.000000
RightUpLeg -31.620924 0.710893 -9.626368
RightLeg 15.879089 -0.000000 -0.000000
RightFoot -8.174000 5.327460 18.421956
RightToeBase 13.132485 -0.000000 -0.000000
379
root 4.020416 35.988906 3.485689 -157.587895 -72.515265 180.919048
Spine -22.433970 -18.734036 -6.668065
Head 41.604410 -18.301297 -10.549984
LeftShoulder 14.955556 -9.477096 32.375888
LeftArm 102.702573 39.838904 -44.555726
LeftForeArm 11.378622 -0.000000 94.180090
LeftHand -21.800693 -0.000000 4.869509
LeftHandThumb1 -26.253704 0.000000 33.147579
RightShoulder 1.888140 -54.898829 -34.240309
RightArm 42.021369 -16.379349 20.603406
RightForeArm -5.157614 0.000000 16.265667
RightHand 9.828099 -0.000000 1.756252
RightHandThumb1 -24.326973 -0.000000 -32.862282
LeftUpLeg -24.894114 16.932235 -2.877043
LeftLeg 16.777352 -0.000000 -0.000000
LeftFoot -17.934935 13.306941 -16.029199
LeftToeBase 9.346620 -0.000000 -0.000000
RightUpLeg -31.614104 0.716808 -9.611807
RightLeg 15.906531 -0.000000 -0.000000
RightFoot -8.157599 5.362454 18.416125
RightToeBase 13.107843 -0.000000 -0.000000
380
root 4.018327 35.988018 3.482586 -157.665862 -72.477935 180.951109
Spine -22.355651 -18.712841 -6.713583
Head 41.743102 -18.291938 -10.556966
LeftShoulder 15.017477 -9.288642 32.332057
LeftArm 103.029869 39.734351 -44.198367
LeftForeArm 11.418628 -0.000000 94.117475
LeftHand -22.048120 -0.000000 5.156007
LeftHandThumb1 -26.253704 0.000000 33.147579
RightShoulder 1.975255 -55.125894 -34.246944
RightArm 42.243195 -17.382569 19.759300
RightForeArm -6.305858 0.000000 16.638910
RightHand 9.905977 -0.000000 3.518905
RightHandThumb1 -24.326973 -0.000000 -32.862282
LeftUpLeg -24.838535 16.961337 -2.859194
LeftLeg 16.782789 -0.000000 -0.000000
LeftFoot -17.946005 13.324978 -16.019403
LeftToeBase 9.337906 -0.000000 -0.000000
RightUpLeg -31.582209 0.741892 -9.606008
RightLeg 15.922875 -0.000000 -0.000000
RightFoot -8.156996 5.387455 18.408693
RightToeBase 13.133612 -0.000000 -0.000000
381
root 4.016497 35.987705 3.480201 -157.727632 -72.459642 180.989156
Spine -22.310545 -18.716173 -6.732933
Head 41.897918 -18.261339 -10.568203
LeftShoulder 15.044193 -9.363605 32.289392
LeftArm 103.091950 39.854897 -44.062002
LeftForeArm 11.466926 -0.000000 94.029664
LeftHand -22.200154 -0.000000 5.405800
LeftHandThumb1 -26.253704 0.000000 33.147579
RightShoulder 2.118031 -55.321389 -34.274772
RightArm 42.429723 -18.416846 18.958907
RightForeArm -7.718900 0.000000 16.995439
RightHand 10.028224 -0.000000 4.086814
RightHandThumb1 -24.326973 -0.000000 -32.862282
LeftUpLeg -24.805776 16.965162 -2.837201
LeftLeg 16.784870 -0.000000 -0.000000
LeftFoot -17.961904 13.332338 -16.047956
LeftToeBase 9.335016 -0.000000 -0.000000
RightUpLeg -31.558326 0.733445 -9.583623
RightLeg 15.921863 -0.000000 -0.000000
RightFoot -8.143421 5.418873 18.375903
RightToeBase 13.098583 -0.000000 -0.000000
382
root 4.013810 35.987073 3.477635 -157.798850 -72.422525 181.018869
Spine -22.243695 -18.700266 -6.768468
Head 42.058992 -18.239936 -10.592611
LeftShoulder 15.079124 -9.319116 32.250188
LeftArm 103.239587 39.878317 -43.863681
LeftForeArm 11.470183 -0.000000 93.929291
LeftHand -22.290530 -0.000000 5.625758
LeftHandThumb1 -26.253704 0.000000 33.147579
RightShoulder 2.215543 -55.553768 -34.257876
RightArm 42.657080 -19.366408 18.165941
RightForeArm -9.011417 0.000000 17.318640
RightHand 10.158934 -0.000000 3.977078
RightHandThumb1 -24.326973 -0.000000 -32.862282
LeftUpLeg -24.753952 16.998607 -2.825607
LeftLeg 16.787335 -0.000000 -0.000000
LeftFoot -17.978102 13.346956 -16.062302
LeftToeBase 9.333893 -0.000000 -0.000000
RightUpLeg -31.524819 0.732522 -9.565208
RightLeg 15.930600 -0.000000 -0.000000
RightFoot -8.134046 5.461110 18.370322
RightToeBase 13.091578 -0.000000 -0.000000
383
root 4.009981 35.985821 3.475550 -157.882659 -72.370662 181.040705
Spine -22.153284 -18.661156 -6.821358
Head 42.223204 -18.214370 -10.611592
LeftShoulder 15.104538 -9.242040 32.224650
LeftArm 103.420928 39.848729 -43.637022
LeftForeArm 11.379576 -0.000000 93.821349
LeftHand -22.266868 -0.000000 5.856635
LeftHandThumb1 -26.253704 0.000000 33.147579
RightShoulder 2.257518 -55.816003 -34.161719
RightArm 42.888398 -20.253787 17.314141
RightForeArm -9.878910 0.000000 17.720248
RightHand 10.134136 -0.000000 3.952484
RightHandThumb1 -24.326973 -0.000000 -32.862282
LeftUpLeg -24.669021 17.047643 -2.813065
LeftLeg 16.774236 -0.000000 -0.000000
LeftFoot -17.993994 13.351892 -16.062969
LeftToeBase 9.331111 -0.000000 -0.000000
RightUpLeg -31.461795 0.767992 -9.566429
RightLeg 15.916657 -0.000000 -0.000000
RightFoot -8.138409 5.489242 18.360968
RightToeBase 13.127042 -0.000000 -0.000000
